<svg width="481" height="174" viewBox="0 0 481 174" fill="none" xmlns="http://www.w3.org/2000/svg">
<path d="M42.1238 174C20.1845 174 2.33575 152.581 2.33575 126.256C2.33575 109.46 9.43497 91.1844 20.0006 80.7811C25.9672 74.9123 32.6654 71.8704 39.3675 71.9584C62.8737 72.3183 79.2533 100.862 79.2533 126.256C79.2592 153.473 63.3001 174 42.1238 174ZM39.0427 79.4449C33.2542 79.4449 28.3577 83.062 25.2551 86.1177C16.0255 95.2044 9.82426 111.336 9.82426 126.256C9.82426 148.453 24.3122 166.511 42.1218 166.511C59.0218 166.511 71.7668 149.205 71.7668 126.256C71.7668 104.839 57.5644 79.7266 39.254 79.4469L39.0427 79.4449Z" fill="#FFA80A"/>
<path d="M71.4596 111.574C59.4698 110.577 28.925 87.2524 25.4879 84.5958L30.0635 78.6664C42.3879 88.1777 64.7086 103.497 72.0876 104.111L71.4596 111.574ZM75.1569 136.536C58.3078 134.914 15.9453 103.495 11.1701 99.9113L15.6695 93.9173C28.1895 103.288 63.3823 127.872 75.8827 129.073L75.1569 136.536ZM67.3887 154.635C37.6733 152.053 6.17781 121.178 4.84952 119.865L10.1177 114.542C10.4248 114.845 41.0263 144.829 68.0362 147.176L67.3887 154.635ZM57.6075 168.069C37.3545 167.415 6.60231 145.521 5.30337 144.594L9.66775 138.508C9.96705 138.721 39.8682 160.009 57.85 160.588L57.6075 168.069Z" fill="#FFA80A"/>
<path d="M9.98076 110.326L9.35868 102.863C16.7415 102.247 39.0525 86.9276 51.3827 77.4144L55.9584 83.3438C52.5154 86.0023 21.9706 109.329 9.98076 110.326ZM6.28346 135.288L5.56747 127.831C18.0718 126.63 53.2724 102.047 65.7807 92.6751L70.28 98.669C65.495 102.247 23.1326 133.668 6.28346 135.288ZM14.0537 153.389L13.4022 145.93C40.4121 143.578 71.0136 113.605 71.3207 113.294L76.5889 118.617C75.2626 119.929 43.767 150.803 14.0537 153.389ZM23.8329 166.815L23.5884 159.334C41.5858 158.747 71.4694 137.469 71.7668 137.256L76.137 143.34C74.842 144.273 44.0859 166.167 23.8329 166.815Z" fill="#FFA80A"/>
<path d="M0 56.913C0 56.913 15.5521 86.0884 39.9543 85.3137C64.3565 84.5391 78.3632 64.9082 78.3632 64.9082C78.3632 64.9082 61.8056 67.5745 51.2262 76.5165C51.2262 76.5165 75.7477 60.4636 78.4982 43.4227C78.4982 43.4227 54.1664 55.6649 47.5895 70.6967C47.5895 70.6967 71.1994 33.5789 71.6866 18.5608C71.6866 18.5608 52.9457 30.132 48.822 52.4684C48.822 52.4684 53.7693 22.6572 52.1808 0C52.1808 0 40.819 17.2717 40.6547 52.0087C40.6547 52.0087 34.3047 28.8155 27.3933 17.9485C27.3933 17.9485 30.224 41.6191 37.1628 63.9027C37.1628 63.9027 26.288 43.3504 11.6592 34.9287C11.6592 34.9287 21.3524 59.5481 30.4704 69.3762C30.4626 69.3762 12.9151 56.5667 0 56.913Z" fill="#77AB33"/>
<path d="M39.8255 98.7374L43.9338 102.846L39.8255 106.954L35.7172 102.846L39.8255 98.7374Z" fill="#3C4835"/>
<path d="M20.2636 110.402L24.4425 114.581L20.2636 118.76L16.0847 114.581L20.2636 110.402Z" fill="#3C4835"/>
<path d="M60.3394 110.437L64.5142 114.164L60.7867 118.339L56.6118 114.612L60.3394 110.437Z" fill="#3C4835"/>
<path d="M39.1087 123.799L44.3024 127.954L40.1474 133.147L34.9537 128.992L39.1087 123.799Z" fill="#3C4835"/>
<path d="M19.2637 135.733L22.7765 138.824L19.685 142.337L16.1723 139.246L19.2637 135.733Z" fill="#3C4835"/>
<path d="M38.8123 147.598L42.2162 150.151L39.6633 153.555L36.2594 151.002L38.8123 147.598Z" fill="#3C4835"/>
<path d="M60.3663 135.802L63.599 139.035L60.3663 142.268L57.1336 139.035L60.3663 135.802Z" fill="#3C4835"/>
<path d="M55.5095 88.6174L58.6438 90.8563L56.4049 93.9906L53.2706 91.7516L55.5095 88.6174Z" fill="#3C4835"/>
<path d="M25.1783 87.8246L27.6474 91.1372L24.3348 93.6063L21.8657 90.2937L25.1783 87.8246Z" fill="#3C4835"/>
<path d="M58.7204 155.366L60.3724 158.227L57.511 159.879L55.8589 157.018L58.7204 155.366Z" fill="#3C4835"/>
<mask id="path-15-outside-1_0_1" maskUnits="userSpaceOnUse" x="120" y="46" width="361" height="109" fill="black">
<rect fill="white" x="120" y="46" width="361" height="109"/>
<path d="M178.268 153H121.268V48H133.718V151.5H178.268V153ZM182.867 103.05C182.867 84.85 187.267 71.05 196.067 61.65C204.967 52.15 216.367 47.4 230.267 47.4C244.167 47.4 255.217 51.5 263.417 59.7C271.717 67.9 275.867 81 275.867 99C275.867 117 271.467 130.6 262.667 139.8C253.867 149 242.117 153.6 227.417 153.6C214.717 153.6 204.317 149.95 196.217 142.65C192.017 138.85 188.717 133.6 186.317 126.9C184.017 120.1 182.867 112.15 182.867 103.05ZM229.817 48.9C219.717 48.9 211.417 53.4 204.917 62.4C198.517 71.4 195.317 84.6 195.317 102C195.317 119.4 198.367 132.1 204.467 140.1C210.567 148.1 218.667 152.1 228.767 152.1C238.967 152.1 247.267 147.6 253.667 138.6C260.167 129.5 263.417 116.35 263.417 99.15C263.417 81.85 260.317 69.15 254.117 61.05C248.017 52.95 239.917 48.9 229.817 48.9ZM341.711 153.6C323.011 153.6 309.161 148.3 300.161 137.7C296.961 133.9 294.361 128.85 292.361 122.55C290.361 116.25 289.361 108.6 289.361 99.6C289.361 90.6 290.811 82.55 293.711 75.45C296.711 68.25 300.761 62.7 305.861 58.8C315.761 51.5 327.711 47.85 341.711 47.85C346.211 47.85 350.611 48.2 354.911 48.9C359.211 49.5 362.411 50.15 364.511 50.85L367.661 51.9L367.211 53.4C359.411 50.7 350.911 49.35 341.711 49.35C331.111 49.35 322.261 52.8 315.161 59.7C309.761 64.8 305.961 72.3 303.761 82.2C302.461 87.8 301.811 94.65 301.811 102.75C301.811 110.85 302.961 118.35 305.261 125.25C307.561 132.05 310.161 137.1 313.061 140.4C316.061 143.7 319.661 146.35 323.861 148.35C328.061 150.25 331.411 151.35 333.911 151.65C336.411 151.95 339.361 152.1 342.761 152.1C346.261 152.1 350.911 151.7 356.711 150.9V120H338.561V118.5H375.611V120H369.161V149.55C361.561 152.25 352.411 153.6 341.711 153.6ZM386.773 103.05C386.773 84.85 391.173 71.05 399.973 61.65C408.873 52.15 420.273 47.4 434.173 47.4C448.073 47.4 459.123 51.5 467.323 59.7C475.623 67.9 479.773 81 479.773 99C479.773 117 475.373 130.6 466.573 139.8C457.773 149 446.023 153.6 431.323 153.6C418.623 153.6 408.223 149.95 400.123 142.65C395.923 138.85 392.623 133.6 390.223 126.9C387.923 120.1 386.773 112.15 386.773 103.05ZM433.723 48.9C423.623 48.9 415.323 53.4 408.823 62.4C402.423 71.4 399.223 84.6 399.223 102C399.223 119.4 402.273 132.1 408.373 140.1C414.473 148.1 422.573 152.1 432.673 152.1C442.873 152.1 451.173 147.6 457.573 138.6C464.073 129.5 467.323 116.35 467.323 99.15C467.323 81.85 464.223 69.15 458.023 61.05C451.923 52.95 443.823 48.9 433.723 48.9Z"/>
</mask>
<path d="M178.268 153H121.268V48H133.718V151.5H178.268V153ZM182.867 103.05C182.867 84.85 187.267 71.05 196.067 61.65C204.967 52.15 216.367 47.4 230.267 47.4C244.167 47.4 255.217 51.5 263.417 59.7C271.717 67.9 275.867 81 275.867 99C275.867 117 271.467 130.6 262.667 139.8C253.867 149 242.117 153.6 227.417 153.6C214.717 153.6 204.317 149.95 196.217 142.65C192.017 138.85 188.717 133.6 186.317 126.9C184.017 120.1 182.867 112.15 182.867 103.05ZM229.817 48.9C219.717 48.9 211.417 53.4 204.917 62.4C198.517 71.4 195.317 84.6 195.317 102C195.317 119.4 198.367 132.1 204.467 140.1C210.567 148.1 218.667 152.1 228.767 152.1C238.967 152.1 247.267 147.6 253.667 138.6C260.167 129.5 263.417 116.35 263.417 99.15C263.417 81.85 260.317 69.15 254.117 61.05C248.017 52.95 239.917 48.9 229.817 48.9ZM341.711 153.6C323.011 153.6 309.161 148.3 300.161 137.7C296.961 133.9 294.361 128.85 292.361 122.55C290.361 116.25 289.361 108.6 289.361 99.6C289.361 90.6 290.811 82.55 293.711 75.45C296.711 68.25 300.761 62.7 305.861 58.8C315.761 51.5 327.711 47.85 341.711 47.85C346.211 47.85 350.611 48.2 354.911 48.9C359.211 49.5 362.411 50.15 364.511 50.85L367.661 51.9L367.211 53.4C359.411 50.7 350.911 49.35 341.711 49.35C331.111 49.35 322.261 52.8 315.161 59.7C309.761 64.8 305.961 72.3 303.761 82.2C302.461 87.8 301.811 94.65 301.811 102.75C301.811 110.85 302.961 118.35 305.261 125.25C307.561 132.05 310.161 137.1 313.061 140.4C316.061 143.7 319.661 146.35 323.861 148.35C328.061 150.25 331.411 151.35 333.911 151.65C336.411 151.95 339.361 152.1 342.761 152.1C346.261 152.1 350.911 151.7 356.711 150.9V120H338.561V118.5H375.611V120H369.161V149.55C361.561 152.25 352.411 153.6 341.711 153.6ZM386.773 103.05C386.773 84.85 391.173 71.05 399.973 61.65C408.873 52.15 420.273 47.4 434.173 47.4C448.073 47.4 459.123 51.5 467.323 59.7C475.623 67.9 479.773 81 479.773 99C479.773 117 475.373 130.6 466.573 139.8C457.773 149 446.023 153.6 431.323 153.6C418.623 153.6 408.223 149.95 400.123 142.65C395.923 138.85 392.623 133.6 390.223 126.9C387.923 120.1 386.773 112.15 386.773 103.05ZM433.723 48.9C423.623 48.9 415.323 53.4 408.823 62.4C402.423 71.4 399.223 84.6 399.223 102C399.223 119.4 402.273 132.1 408.373 140.1C414.473 148.1 422.573 152.1 432.673 152.1C442.873 152.1 451.173 147.6 457.573 138.6C464.073 129.5 467.323 116.35 467.323 99.15C467.323 81.85 464.223 69.15 458.023 61.05C451.923 52.95 443.823 48.9 433.723 48.9Z" fill="black"/>
<path d="M178.268 153V154H179.268V153H178.268ZM121.268 153H120.268V154H121.268V153ZM121.268 48V47H120.268V48H121.268ZM133.718 48H134.718V47H133.718V48ZM133.718 151.5H132.718V152.5H133.718V151.5ZM178.268 151.5H179.268V150.5H178.268V151.5ZM178.268 153V152H121.268V153V154H178.268V153ZM121.268 153H122.268V48H121.268H120.268V153H121.268ZM121.268 48V49H133.718V48V47H121.268V48ZM133.718 48H132.718V151.5H133.718H134.718V48H133.718ZM133.718 151.5V152.5H178.268V151.5V150.5H133.718V151.5ZM178.268 151.5H177.268V153H178.268H179.268V151.5H178.268ZM196.067 61.65L195.337 60.9663L195.337 60.9666L196.067 61.65ZM263.417 59.7L262.71 60.4071L262.714 60.4114L263.417 59.7ZM262.667 139.8L261.945 139.109L261.945 139.109L262.667 139.8ZM196.217 142.65L195.546 143.392L195.548 143.393L196.217 142.65ZM186.317 126.9L185.37 127.22L185.373 127.229L185.376 127.237L186.317 126.9ZM204.917 62.4L204.106 61.8145L204.102 61.8205L204.917 62.4ZM204.467 140.1L203.672 140.706L203.672 140.706L204.467 140.1ZM253.667 138.6L252.853 138.019L252.852 138.02L253.667 138.6ZM254.117 61.05L253.318 61.6516L253.323 61.6578L254.117 61.05ZM182.867 103.05H183.867C183.867 84.9987 188.231 71.4835 196.797 62.3334L196.067 61.65L195.337 60.9666C186.303 70.6165 181.867 84.7013 181.867 103.05H182.867ZM196.067 61.65L196.797 62.3337C205.494 53.0503 216.623 48.4 230.267 48.4V47.4V46.4C216.112 46.4 204.44 51.2497 195.337 60.9663L196.067 61.65ZM230.267 47.4V48.4C243.958 48.4 254.734 52.4311 262.71 60.4071L263.417 59.7L264.124 58.9929C255.7 50.5689 244.376 46.4 230.267 46.4V47.4ZM263.417 59.7L262.714 60.4114C270.743 68.3429 274.867 81.1253 274.867 99H275.867H276.867C276.867 80.8747 272.692 67.4571 264.12 58.9886L263.417 59.7ZM275.867 99H274.867C274.867 116.85 270.504 130.16 261.945 139.109L262.667 139.8L263.39 140.491C272.43 131.04 276.867 117.15 276.867 99H275.867ZM262.667 139.8L261.945 139.109C253.363 148.081 241.89 152.6 227.417 152.6V153.6V154.6C242.344 154.6 254.372 149.919 263.39 140.491L262.667 139.8ZM227.417 153.6V152.6C214.921 152.6 204.773 149.015 196.887 141.907L196.217 142.65L195.548 143.393C203.861 150.885 214.513 154.6 227.417 154.6V153.6ZM196.217 142.65L196.888 141.908C192.838 138.244 189.617 133.147 187.259 126.563L186.317 126.9L185.376 127.237C187.817 134.053 191.197 139.456 195.546 143.392L196.217 142.65ZM186.317 126.9L187.264 126.58C185.007 119.906 183.867 112.069 183.867 103.05H182.867H181.867C181.867 112.231 183.027 120.294 185.37 127.22L186.317 126.9ZM229.817 48.9V47.9C219.361 47.9 210.773 52.5842 204.107 61.8145L204.917 62.4L205.728 62.9855C212.062 54.2158 220.074 49.9 229.817 49.9V48.9ZM204.917 62.4L204.102 61.8205C197.531 71.0619 194.317 84.503 194.317 102H195.317H196.317C196.317 84.697 199.504 71.7381 205.732 62.9795L204.917 62.4ZM195.317 102H194.317C194.317 119.476 197.373 132.445 203.672 140.706L204.467 140.1L205.262 139.494C199.362 131.755 196.317 119.324 196.317 102H195.317ZM204.467 140.1L203.672 140.706C209.962 148.956 218.357 153.1 228.767 153.1V152.1V151.1C218.978 151.1 211.172 147.244 205.262 139.494L204.467 140.1ZM228.767 152.1V153.1C239.321 153.1 247.913 148.418 254.482 139.18L253.667 138.6L252.852 138.02C246.622 146.782 238.613 151.1 228.767 151.1V152.1ZM253.667 138.6L254.481 139.181C261.151 129.843 264.417 116.453 264.417 99.15H263.417H262.417C262.417 116.247 259.183 129.157 252.853 138.019L253.667 138.6ZM263.417 99.15H264.417C264.417 81.7687 261.31 68.8015 254.911 60.4422L254.117 61.05L253.323 61.6578C259.325 69.4985 262.417 81.9313 262.417 99.15H263.417ZM254.117 61.05L254.916 60.4484C248.628 52.0987 240.233 47.9 229.817 47.9V48.9V49.9C239.602 49.9 247.406 53.8013 253.318 61.6516L254.117 61.05ZM300.161 137.7L299.396 138.344L299.399 138.347L300.161 137.7ZM292.361 122.55L293.314 122.247L292.361 122.55ZM293.711 75.45L292.788 75.0654L292.786 75.0719L293.711 75.45ZM305.861 58.8L305.268 57.9951L305.261 58.0003L305.254 58.0056L305.861 58.8ZM354.911 48.9L354.751 49.887L354.762 49.8888L354.773 49.8904L354.911 48.9ZM364.511 50.85L364.828 49.9013L364.828 49.9013L364.511 50.85ZM367.661 51.9L368.619 52.1873L368.898 51.2581L367.978 50.9513L367.661 51.9ZM367.211 53.4L366.884 54.345L367.87 54.6861L368.169 53.6873L367.211 53.4ZM315.161 59.7L315.848 60.427L315.853 60.4221L315.858 60.4171L315.161 59.7ZM303.761 82.2L304.735 82.4261L304.738 82.4169L303.761 82.2ZM305.261 125.25L304.313 125.566L304.314 125.57L305.261 125.25ZM313.061 140.4L312.31 141.06L312.316 141.066L312.321 141.073L313.061 140.4ZM323.861 148.35L323.431 149.253L323.44 149.257L323.449 149.261L323.861 148.35ZM333.911 151.65L333.792 152.643L333.792 152.643L333.911 151.65ZM356.711 150.9L356.848 151.891L357.711 151.772V150.9H356.711ZM356.711 120H357.711V119H356.711V120ZM338.561 120H337.561V121H338.561V120ZM338.561 118.5V117.5H337.561V118.5H338.561ZM375.611 118.5H376.611V117.5H375.611V118.5ZM375.611 120V121H376.611V120H375.611ZM369.161 120V119H368.161V120H369.161ZM369.161 149.55L369.496 150.492L370.161 150.256V149.55H369.161ZM341.711 153.6V152.6C323.198 152.6 309.674 147.359 300.924 137.053L300.161 137.7L299.399 138.347C308.649 149.241 322.825 154.6 341.711 154.6V153.6ZM300.161 137.7L300.926 137.056C297.834 133.383 295.287 128.461 293.314 122.247L292.361 122.55L291.408 122.853C293.436 129.239 296.089 134.417 299.396 138.344L300.161 137.7ZM292.361 122.55L293.314 122.247C291.354 116.073 290.361 108.532 290.361 99.6H289.361H288.361C288.361 108.668 289.368 116.427 291.408 122.853L292.361 122.55ZM289.361 99.6H290.361C290.361 90.7075 291.794 82.7892 294.637 75.8281L293.711 75.45L292.786 75.0719C289.829 82.3108 288.361 90.4925 288.361 99.6H289.361ZM293.711 75.45L294.634 75.8346C297.581 68.7618 301.535 63.3671 306.469 59.5944L305.861 58.8L305.254 58.0056C299.987 62.0329 295.841 67.7382 292.788 75.0654L293.711 75.45ZM305.861 58.8L306.455 59.6048C316.16 52.4487 327.894 48.85 341.711 48.85V47.85V46.85C327.529 46.85 315.363 50.5513 305.268 57.9951L305.861 58.8ZM341.711 47.85V48.85C346.159 48.85 350.505 49.1959 354.751 49.887L354.911 48.9L355.072 47.913C350.717 47.2041 346.263 46.85 341.711 46.85V47.85ZM354.911 48.9L354.773 49.8904C359.059 50.4884 362.185 51.1286 364.195 51.7987L364.511 50.85L364.828 49.9013C362.638 49.1714 359.364 48.5116 355.05 47.9096L354.911 48.9ZM364.511 50.85L364.195 51.7987L367.345 52.8487L367.661 51.9L367.978 50.9513L364.828 49.9013L364.511 50.85ZM367.661 51.9L366.704 51.6126L366.254 53.1126L367.211 53.4L368.169 53.6873L368.619 52.1873L367.661 51.9ZM367.211 53.4L367.538 52.455C359.622 49.7147 351.01 48.35 341.711 48.35V49.35V50.35C350.813 50.35 359.201 51.6853 366.884 54.345L367.211 53.4ZM341.711 49.35V48.35C330.871 48.35 321.765 51.8878 314.464 58.9829L315.161 59.7L315.858 60.4171C322.758 53.7122 331.351 50.35 341.711 50.35V49.35ZM315.161 59.7L314.475 58.973C308.885 64.2521 305.013 71.9573 302.785 81.9831L303.761 82.2L304.738 82.4169C306.91 72.6427 310.638 65.3479 315.848 60.427L315.161 59.7ZM303.761 82.2L302.787 81.9739C301.465 87.6713 300.811 94.6022 300.811 102.75H301.811H302.811C302.811 94.6978 303.458 87.9287 304.735 82.4261L303.761 82.2ZM301.811 102.75H300.811C300.811 110.945 301.975 118.553 304.313 125.566L305.261 125.25L306.21 124.934C303.948 118.147 302.811 110.755 302.811 102.75H301.811ZM305.261 125.25L304.314 125.57C306.633 132.426 309.285 137.618 312.31 141.06L313.061 140.4L313.812 139.74C311.038 136.582 308.49 131.674 306.209 124.93L305.261 125.25ZM313.061 140.4L312.321 141.073C315.413 144.473 319.119 147.199 323.431 149.253L323.861 148.35L324.291 147.447C320.203 145.501 316.71 142.927 313.801 139.727L313.061 140.4ZM323.861 148.35L323.449 149.261C327.679 151.174 331.139 152.325 333.792 152.643L333.911 151.65L334.03 150.657C331.683 150.375 328.444 149.326 324.273 147.439L323.861 148.35ZM333.911 151.65L333.792 152.643C336.343 152.949 339.334 153.1 342.761 153.1V152.1V151.1C339.388 151.1 336.48 150.951 334.03 150.657L333.911 151.65ZM342.761 152.1V153.1C346.327 153.1 351.028 152.693 356.848 151.891L356.711 150.9L356.575 149.909C350.794 150.707 346.195 151.1 342.761 151.1V152.1ZM356.711 150.9H357.711V120H356.711H355.711V150.9H356.711ZM356.711 120V119H338.561V120V121H356.711V120ZM338.561 120H339.561V118.5H338.561H337.561V120H338.561ZM338.561 118.5V119.5H375.611V118.5V117.5H338.561V118.5ZM375.611 118.5H374.611V120H375.611H376.611V118.5H375.611ZM375.611 120V119H369.161V120V121H375.611V120ZM369.161 120H368.161V149.55H369.161H370.161V120H369.161ZM369.161 149.55L368.827 148.608C361.363 151.259 352.332 152.6 341.711 152.6V153.6V154.6C352.49 154.6 361.76 153.241 369.496 150.492L369.161 149.55ZM399.973 61.65L399.244 60.9663L399.243 60.9666L399.973 61.65ZM467.323 59.7L466.616 60.4071L466.621 60.4114L467.323 59.7ZM466.573 139.8L465.851 139.109L465.851 139.109L466.573 139.8ZM400.123 142.65L399.453 143.392L399.454 143.393L400.123 142.65ZM390.223 126.9L389.276 127.22L389.279 127.229L389.282 127.237L390.223 126.9ZM408.823 62.4L408.013 61.8145L408.008 61.8205L408.823 62.4ZM408.373 140.1L407.578 140.706L407.578 140.706L408.373 140.1ZM457.573 138.6L456.76 138.019L456.758 138.02L457.573 138.6ZM458.023 61.05L457.225 61.6516L457.229 61.6578L458.023 61.05ZM386.773 103.05H387.773C387.773 84.9987 392.137 71.4835 400.703 62.3334L399.973 61.65L399.243 60.9666C390.209 70.6165 385.773 84.7013 385.773 103.05H386.773ZM399.973 61.65L400.703 62.3337C409.4 53.0503 420.529 48.4 434.173 48.4V47.4V46.4C420.018 46.4 408.347 51.2497 399.244 60.9663L399.973 61.65ZM434.173 47.4V48.4C447.865 48.4 458.64 52.4311 466.616 60.4071L467.323 59.7L468.031 58.9929C459.607 50.5689 448.282 46.4 434.173 46.4V47.4ZM467.323 59.7L466.621 60.4114C474.649 68.3429 478.773 81.1253 478.773 99H479.773H480.773C480.773 80.8747 476.598 67.4571 468.026 58.9886L467.323 59.7ZM479.773 99H478.773C478.773 116.85 474.41 130.16 465.851 139.109L466.573 139.8L467.296 140.491C476.336 131.04 480.773 117.15 480.773 99H479.773ZM466.573 139.8L465.851 139.109C457.269 148.081 445.797 152.6 431.323 152.6V153.6V154.6C446.25 154.6 458.278 149.919 467.296 140.491L466.573 139.8ZM431.323 153.6V152.6C418.827 152.6 408.679 149.015 400.793 141.907L400.123 142.65L399.454 143.393C407.767 150.885 418.419 154.6 431.323 154.6V153.6ZM400.123 142.65L400.794 141.908C396.744 138.244 393.523 133.147 391.165 126.563L390.223 126.9L389.282 127.237C391.724 134.053 395.103 139.456 399.453 143.392L400.123 142.65ZM390.223 126.9L391.171 126.58C388.914 119.906 387.773 112.069 387.773 103.05H386.773H385.773C385.773 112.231 386.933 120.294 389.276 127.22L390.223 126.9ZM433.723 48.9V47.9C423.267 47.9 414.679 52.5842 408.013 61.8145L408.823 62.4L409.634 62.9855C415.968 54.2158 423.98 49.9 433.723 49.9V48.9ZM408.823 62.4L408.008 61.8205C401.437 71.0619 398.223 84.503 398.223 102H399.223H400.223C400.223 84.697 403.41 71.7381 409.638 62.9795L408.823 62.4ZM399.223 102H398.223C398.223 119.476 401.279 132.445 407.578 140.706L408.373 140.1L409.169 139.494C403.268 131.755 400.223 119.324 400.223 102H399.223ZM408.373 140.1L407.578 140.706C413.868 148.956 422.263 153.1 432.673 153.1V152.1V151.1C422.884 151.1 415.079 147.244 409.169 139.494L408.373 140.1ZM432.673 152.1V153.1C443.227 153.1 451.819 148.418 458.388 139.18L457.573 138.6L456.758 138.02C450.528 146.782 442.52 151.1 432.673 151.1V152.1ZM457.573 138.6L458.387 139.181C465.058 129.843 468.323 116.453 468.323 99.15H467.323H466.323C466.323 116.247 463.089 129.157 456.76 138.019L457.573 138.6ZM467.323 99.15H468.323C468.323 81.7687 465.216 68.8015 458.818 60.4422L458.023 61.05L457.229 61.6578C463.231 69.4985 466.323 81.9313 466.323 99.15H467.323ZM458.023 61.05L458.822 60.4484C452.534 52.0987 444.139 47.9 433.723 47.9V48.9V49.9C443.508 49.9 451.313 53.8013 457.225 61.6516L458.023 61.05Z" fill="black" mask="url(#path-15-outside-1_0_1)"/>
</svg>
