<svg width="155" height="54" viewBox="0 0 155 54" fill="none" xmlns="http://www.w3.org/2000/svg">
<mask id="mask0_3_28" style="mask-type:luminance" maskUnits="userSpaceOnUse" x="0" y="0" width="155" height="54">
<path d="M155 0H0V54H155V0Z" fill="white"/>
</mask>
<g mask="url(#mask0_3_28)">
<path d="M62.32 33.72H71.28V39H55.48V10.92H62.32V33.72ZM84.7025 39.32C82.5158 39.32 80.5425 38.8533 78.7825 37.92C77.0492 36.9867 75.6758 35.6533 74.6625 33.92C73.6758 32.1867 73.1825 30.16 73.1825 27.84C73.1825 25.5467 73.6892 23.5333 74.7025 21.8C75.7158 20.04 77.1025 18.6933 78.8625 17.76C80.6225 16.8267 82.5958 16.36 84.7825 16.36C86.9692 16.36 88.9425 16.8267 90.7025 17.76C92.4625 18.6933 93.8492 20.04 94.8625 21.8C95.8758 23.5333 96.3825 25.5467 96.3825 27.84C96.3825 30.1333 95.8625 32.16 94.8225 33.92C93.8092 35.6533 92.4092 36.9867 90.6225 37.92C88.8625 38.8533 86.8892 39.32 84.7025 39.32ZM84.7025 33.4C86.0092 33.4 87.1158 32.92 88.0225 31.96C88.9558 31 89.4225 29.6267 89.4225 27.84C89.4225 26.0533 88.9692 24.68 88.0625 23.72C87.1825 22.76 86.0892 22.28 84.7825 22.28C83.4492 22.28 82.3425 22.76 81.4625 23.72C80.5825 24.6533 80.1425 26.0267 80.1425 27.84C80.1425 29.6267 80.5692 31 81.4225 31.96C82.3025 32.92 83.3958 33.4 84.7025 33.4ZM108.491 16.36C110.065 16.36 111.438 16.68 112.611 17.32C113.811 17.96 114.731 18.8 115.371 19.84V16.68H122.211V38.96C122.211 41.0133 121.798 42.8667 120.971 44.52C120.171 46.2 118.931 47.5333 117.251 48.52C115.598 49.5067 113.531 50 111.051 50C107.745 50 105.065 49.2133 103.011 47.64C100.958 46.0933 99.7846 43.9867 99.4913 41.32H106.251C106.465 42.1733 106.971 42.84 107.771 43.32C108.571 43.8267 109.558 44.08 110.731 44.08C112.145 44.08 113.265 43.6667 114.091 42.84C114.945 42.04 115.371 40.7467 115.371 38.96V35.8C114.705 36.84 113.785 37.6933 112.611 38.36C111.438 39 110.065 39.32 108.491 39.32C106.651 39.32 104.985 38.8533 103.491 37.92C101.998 36.96 100.811 35.6133 99.9313 33.88C99.0779 32.12 98.6513 30.0933 98.6513 27.8C98.6513 25.5067 99.0779 23.4933 99.9313 21.76C100.811 20.0267 101.998 18.6933 103.491 17.76C104.985 16.8267 106.651 16.36 108.491 16.36ZM115.371 27.84C115.371 26.1333 114.891 24.7867 113.931 23.8C112.998 22.8133 111.851 22.32 110.491 22.32C109.131 22.32 107.971 22.8133 107.011 23.8C106.078 24.76 105.611 26.0933 105.611 27.8C105.611 29.5067 106.078 30.8667 107.011 31.88C107.971 32.8667 109.131 33.36 110.491 33.36C111.851 33.36 112.998 32.8667 113.931 31.88C114.891 30.8933 115.371 29.5467 115.371 27.84ZM137.32 39.32C135.133 39.32 133.16 38.8533 131.4 37.92C129.666 36.9867 128.293 35.6533 127.28 33.92C126.293 32.1867 125.8 30.16 125.8 27.84C125.8 25.5467 126.306 23.5333 127.32 21.8C128.333 20.04 129.72 18.6933 131.48 17.76C133.24 16.8267 135.213 16.36 137.4 16.36C139.586 16.36 141.56 16.8267 143.32 17.76C145.08 18.6933 146.466 20.04 147.48 21.8C148.493 23.5333 149 25.5467 149 27.84C149 30.1333 148.48 32.16 147.44 33.92C146.426 35.6533 145.026 36.9867 143.24 37.92C141.48 38.8533 139.506 39.32 137.32 39.32ZM137.32 33.4C138.626 33.4 139.733 32.92 140.64 31.96C141.573 31 142.04 29.6267 142.04 27.84C142.04 26.0533 141.586 24.68 140.68 23.72C139.8 22.76 138.706 22.28 137.4 22.28C136.066 22.28 134.96 22.76 134.08 23.72C133.2 24.6533 132.76 26.0267 132.76 27.84C132.76 29.6267 133.186 31 134.04 31.96C134.92 32.92 136.013 33.4 137.32 33.4Z" fill="white"/>
<path d="M7.5 2.5L0.75 11.5V43C0.75 44.1935 1.22411 45.3381 2.06802 46.182C2.91193 47.0259 4.05653 47.5 5.25 47.5H36.75C37.9435 47.5 39.0881 47.0259 39.932 46.182C40.7759 45.3381 41.25 44.1935 41.25 43V11.5L34.5 2.5H7.5Z" stroke="#1724C9" stroke-width="4" stroke-linecap="round" stroke-linejoin="round"/>
<path d="M0.75 11.5H41.25" stroke="#1724C9" stroke-width="4" stroke-linecap="round" stroke-linejoin="round"/>
<path d="M30 20.5C30 22.8869 29.0518 25.1761 27.364 26.864C25.6761 28.5518 23.3869 29.5 21 29.5C18.6131 29.5 16.3239 28.5518 14.636 26.864C12.9482 25.1761 12 22.8869 12 20.5" stroke="#0192FF" stroke-width="4" stroke-linecap="round" stroke-linejoin="round"/>
</g>
</svg>
